<?xml version="1.0" encoding="us-ascii" standalone="no"?><svg xmlns="http://www.w3.org/2000/svg" xmlns:xlink="http://www.w3.org/1999/xlink" contentStyleType="text/css" height="1322.9167px" preserveAspectRatio="none" style="width:647px;height:1322px;" version="1.1" viewBox="0 0 647 1322" width="647.9167px" zoomAndPan="magnify"><defs><linearGradient id="g134r1kb2bjuc0" x1="50%" x2="50%" y1="0%" y2="100%"><stop offset="0%" stop-color="#33B2E2"/><stop offset="100%" stop-color="#009FDB"/></linearGradient></defs><g><!--cluster Site web de nutrition--><g id="cluster_Site web de nutrition"><rect fill="none" height="1293.75" rx="10.4167" ry="10.4167" style="stroke:#33B2E2;stroke-width:2.0833333333333335;" width="434.375" x="202.0833" y="17.7083"/><text fill="#5A5A5A" font-family="Verdana" font-size="12.5" font-weight="bold" lengthAdjust="spacing" textLength="159.375" x="339.5833" y="39.7278">Site web de nutrition</text></g><g id="elem_UC1"><ellipse cx="419.2962" cy="1183.5324" fill="url(#g134r1kb2bjuc0)" rx="88.5671" ry="25.1991" style="stroke:#33B2E2;stroke-width:2.0833333333333335;"/><text fill="#FFFFFF" font-family="Verdana" font-size="12.5" lengthAdjust="spacing" textLength="91.6667" x="373.4629" y="1185.7765">UC1: S'inscrire</text></g><g id="elem_UC2"><ellipse cx="419.1762" cy="1269.9907" fill="url(#g134r1kb2bjuc0)" rx="107.7179" ry="25.1991" style="stroke:#33B2E2;stroke-width:2.0833333333333335;"/><text fill="#FFFFFF" font-family="Verdana" font-size="12.5" lengthAdjust="spacing" textLength="118.75" x="359.8012" y="1272.2348">UC2: Se connecter</text></g><g id="elem_UC3"><ellipse cx="419.4018" cy="341.5887" fill="url(#g134r1kb2bjuc0)" rx="187.631" ry="40.0262" style="stroke:#33B2E2;stroke-width:2.0833333333333335;"/><text fill="#FFFFFF" font-family="Verdana" font-size="12.5" lengthAdjust="spacing" textLength="305.2083" x="266.7977" y="343.8328">UC3: Mettre &#224; jour les informations personnelles</text></g><g id="elem_UC4"><ellipse cx="419.1775" cy="457.273" fill="url(#g134r1kb2bjuc0)" rx="180.115" ry="38.523" style="stroke:#33B2E2;stroke-width:2.0833333333333335;"/><text fill="#FFFFFF" font-family="Verdana" font-size="12.5" lengthAdjust="spacing" textLength="288.5417" x="274.9066" y="459.5171">UC4: Ajouter un aliment &#224; la base de donn&#233;es</text></g><g id="elem_UC5"><ellipse cx="419.5239" cy="565.6756" fill="url(#g134r1kb2bjuc0)" rx="151.8155" ry="32.8631" style="stroke:#33B2E2;stroke-width:2.0833333333333335;"/><text fill="#FFFFFF" font-family="Verdana" font-size="12.5" lengthAdjust="spacing" textLength="223.9583" x="307.5447" y="567.9197">UC5: Modifier l'aliment qu'il a ajout&#233;</text></g><g id="elem_UC6"><ellipse cx="419.4403" cy="668.9922" fill="url(#g134r1kb2bjuc0)" rx="155.3778" ry="33.5756" style="stroke:#33B2E2;stroke-width:2.0833333333333335;"/><text fill="#FFFFFF" font-family="Verdana" font-size="12.5" lengthAdjust="spacing" textLength="232.2917" x="303.2945" y="671.2363">UC6: Supprimer aliment qu'il a ajout&#233;</text></g><g id="elem_UC7"><ellipse cx="419.0421" cy="773.8084" fill="url(#g134r1kb2bjuc0)" rx="161.2296" ry="34.7459" style="stroke:#33B2E2;stroke-width:2.0833333333333335;"/><text fill="#FFFFFF" font-family="Verdana" font-size="12.5" lengthAdjust="spacing" textLength="245.8333" x="296.1254" y="776.0525">UC7: Enregistrer un aliment consomm&#233;</text></g><g id="elem_UC8"><ellipse cx="419.2178" cy="879.0519" fill="url(#g134r1kb2bjuc0)" rx="153.5928" ry="33.2186" style="stroke:#33B2E2;stroke-width:2.0833333333333335;"/><text fill="#FFFFFF" font-family="Verdana" font-size="12.5" lengthAdjust="spacing" textLength="228.125" x="305.1553" y="881.296">UC8: Consulter le journal alimentaire</text></g><g id="elem_UC9"><ellipse cx="419.4466" cy="990.4518" fill="url(#g134r1kb2bjuc0)" rx="192.3633" ry="40.9727" style="stroke:#33B2E2;stroke-width:2.0833333333333335;"/><text fill="#FFFFFF" font-family="Verdana" font-size="12.5" lengthAdjust="spacing" textLength="315.625" x="261.6341" y="992.6959">UC9: Calculer ces besoins nutritionnels quotidiens</text></g><g id="elem_UC10"><ellipse cx="419.2132" cy="110.301" fill="url(#g134r1kb2bjuc0)" rx="200.4632" ry="42.5926" style="stroke:#33B2E2;stroke-width:2.0833333333333335;"/><text fill="#FFFFFF" font-family="Verdana" font-size="12.5" lengthAdjust="spacing" textLength="333.3333" x="252.5465" y="112.545">UC10: Consulter les valeurs nutritionnels d'un aliment</text></g><g id="elem_UC11"><ellipse cx="419.2623" cy="227.0816" fill="url(#g134r1kb2bjuc0)" rx="174.9914" ry="37.4983" style="stroke:#33B2E2;stroke-width:2.0833333333333335;"/><text fill="#FFFFFF" font-family="Verdana" font-size="12.5" lengthAdjust="spacing" textLength="277.0833" x="280.7206" y="229.3257">UC11: Consulter les propositions de recette</text></g><g id="elem_UC12"><ellipse cx="419.2114" cy="1094.5715" fill="url(#g134r1kb2bjuc0)" rx="119.2114" ry="26.3423" style="stroke:#33B2E2;stroke-width:2.0833333333333335;"/><text fill="#FFFFFF" font-family="Verdana" font-size="12.5" lengthAdjust="spacing" textLength="142.7083" x="347.8573" y="1096.8155">UC12: Se d&#233;connecter</text></g><!--entity UnregisteredUser--><g id="elem_UnregisteredUser"><ellipse cx="82.2917" cy="130.7292" fill="url(#g134r1kb2bjuc0)" rx="8.3333" ry="8.3333" style="stroke:#33B2E2;stroke-width:1.0416666666666667;"/><path d="M82.2917,139.0625 L82.2917,167.1875 M68.75,147.3958 L95.8333,147.3958 M82.2917,167.1875 L68.75,182.8125 M82.2917,167.1875 L95.8333,182.8125 " fill="none" style="stroke:#33B2E2;stroke-width:1.0416666666666667;"/><text fill="#009FDB" font-family="Verdana" font-size="12.5" lengthAdjust="spacing" textLength="131.25" x="16.6667" y="204.8319">Utilisateur non inscrit</text></g><!--entity RegisteredUser--><g id="elem_RegisteredUser"><ellipse cx="82.2917" cy="683.8542" fill="url(#g134r1kb2bjuc0)" rx="8.3333" ry="8.3333" style="stroke:#33B2E2;stroke-width:1.0416666666666667;"/><path d="M82.2917,692.1875 L82.2917,720.3125 M68.75,700.5208 L95.8333,700.5208 M82.2917,720.3125 L68.75,735.9375 M82.2917,720.3125 L95.8333,735.9375 " fill="none" style="stroke:#33B2E2;stroke-width:1.0416666666666667;"/><text fill="#009FDB" font-family="Verdana" font-size="12.5" lengthAdjust="spacing" textLength="104.1667" x="30.2083" y="757.9569">Utilisateur inscrit</text></g><!--link UnregisteredUser to UC10--><g id="link_UnregisteredUser_UC10"><path d="M156.4135,156.0208 C187.9771,150.5208 226.1823,143.8646 263.5365,137.3646 " fill="none" id="UnregisteredUser-UC10" style="stroke:#009FDB;stroke-width:3.125;"/></g><!--link UnregisteredUser to UC11--><g id="link_UnregisteredUser_UC11"><path d="M156.4135,181.4792 C193.4625,187.9375 239.6615,195.9792 282.8938,203.5104 " fill="none" id="UnregisteredUser-UC11" style="stroke:#009FDB;stroke-width:3.125;"/></g><!--link RegisteredUser to UC1--><g id="link_RegisteredUser_UC1"><path d="M89.5245,769.4135 C103.3173,867.8323 139.675,1088.9615 193.75,1139.5833 C230.3448,1173.8417 285.4417,1184.95 331.8896,1187.4104 " fill="none" id="RegisteredUser-UC1" style="stroke:#009FDB;stroke-width:3.125;"/></g><!--link RegisteredUser to UC2--><g id="link_RegisteredUser_UC2"><path d="M87.1371,769.2813 C97.2027,882.4021 128.3635,1163.45 193.75,1227.0833 C224.9521,1257.4492 270.6583,1269.6281 312.6979,1273.633 " fill="none" id="RegisteredUser-UC2" style="stroke:#009FDB;stroke-width:3.125;"/></g><!--link RegisteredUser to UC3--><g id="link_RegisteredUser_UC3"><path d="M85.9605,674.4781 C92.469,604.2094 115.0958,472.876 193.75,400 C211.9885,383.101 234.4896,370.9604 258.1354,362.2656 " fill="none" id="RegisteredUser-UC3" style="stroke:#009FDB;stroke-width:3.125;"/></g><!--link RegisteredUser to UC4--><g id="link_RegisteredUser_UC4"><path d="M96.3328,674.1719 C111.7553,626.6615 142.1156,555.124 193.75,514.5833 C214.8667,498.0031 240.2323,486.175 266.1969,477.7469 " fill="none" id="RegisteredUser-UC4" style="stroke:#009FDB;stroke-width:3.125;"/></g><!--link RegisteredUser to UC5--><g id="link_RegisteredUser_UC5"><path d="M122.5042,674.3854 C141.9104,653.7552 166.9177,631.0615 193.75,616.6667 C222.9813,600.9844 256.8552,590.1052 289.2875,582.5646 " fill="none" id="RegisteredUser-UC5" style="stroke:#009FDB;stroke-width:3.125;"/></g><!--link RegisteredUser to UC6--><g id="link_RegisteredUser_UC6"><path d="M142.8198,712.4385 C184.6417,705.8042 242.125,696.6854 293.7615,688.4948 " fill="none" id="RegisteredUser-UC6" style="stroke:#009FDB;stroke-width:3.125;"/></g><!--link RegisteredUser to UC7--><g id="link_RegisteredUser_UC7"><path d="M142.8198,731.126 C183.0438,737.3823 237.7563,745.8906 287.8188,753.6771 " fill="none" id="RegisteredUser-UC7" style="stroke:#009FDB;stroke-width:3.125;"/></g><!--link RegisteredUser to UC8--><g id="link_RegisteredUser_UC8"><path d="M122.5323,769.3104 C141.9458,789.9302 166.95,812.6292 193.75,827.0833 C222.8885,842.799 256.6438,853.7958 288.9875,861.4844 " fill="none" id="RegisteredUser-UC8" style="stroke:#009FDB;stroke-width:3.125;"/></g><!--link RegisteredUser to UC9--><g id="link_RegisteredUser_UC9"><path d="M96.3769,769.675 C111.8344,817.3115 142.2219,889.1188 193.75,930.2083 C213.8656,946.25 237.8833,958.0479 262.6125,966.7219 " fill="none" id="RegisteredUser-UC9" style="stroke:#009FDB;stroke-width:3.125;"/></g><!--link RegisteredUser to UC10--><g id="link_RegisteredUser_UC10"><path d="M86.5597,674.1083 C95.6296,554.0229 125.2917,243.9063 193.75,170.8333 C209.2021,154.3438 228.6354,142.1667 249.5698,133.2292 " fill="none" id="RegisteredUser-UC10" style="stroke:#009FDB;stroke-width:3.125;"/></g><!--link RegisteredUser to UC11--><g id="link_RegisteredUser_UC11"><path d="M89.1478,674.1604 C102.5075,572.324 138.55,338.4719 193.75,283.3333 C212.3688,264.7396 236.1552,251.9688 261.2458,243.2708 " fill="none" id="RegisteredUser-UC11" style="stroke:#009FDB;stroke-width:3.125;"/></g><!--link RegisteredUser to UC12--><g id="link_RegisteredUser_UC12"><path d="M85.0252,769.2729 C90.2885,841.2635 111.2841,977.4427 193.75,1050 C222.7656,1075.5292 262.1302,1088.126 299.7948,1093.9323 " fill="none" id="RegisteredUser-UC12" style="stroke:#009FDB;stroke-width:3.125;"/></g><!--SRC=[VLDBRjim4Dth55Dlt2u2MFvRkyB8ifiOFi1O6YjiA58PKYs2edVfrkVmnJgCBRiKmW9SlPdtvlVuoJzJGt3G7TMCRvccemTlWLNzxA5IJALNrcJkHPaM6HjeiNp1cdR-JHE4S8QbjmoZlLTQEVJKCHXhG1bNil8ZG0TxmrGhvucfsZlYZpZ_vZ_5sQ4CcbeAZdRA4_oa0rG4flD2aFP6y2i3w1oLw0W-xxTv0RlnHP3foti7spnEcKeAGMcD4N7YQz8qJfeLy8syPuBp7_XkfKjDJZezMcumL7RG4hiWeYLo5Pd58lC2lWfNYa1d0BLgoFWWg14E8KT6gKJYVBefp6E5XRHXAtLK8g77lS9hDrOQ4328dqzNwYAcBcNChcrPA0p_PovZvgg0n-lPE6vTbkPiqzo8gvYuBc0h6PqE4ylDmjuCwfwEzvEiO-96YAZBJWklb3qVo5avultEicKdpLklAaMcNzPcSFj9ND_13zHYiA5EDRwFr5jaCf3AXr8jszOwTJbzzVu1n1ytYmqybbzCLfrFGv_bmMZoXXy37XxwFXAXKEBfeq02doRmMGAV9_150bycy5K2NoVmJMgkIIgGtCGq-_qN]--></g></svg>