<svg xmlns="http://www.w3.org/2000/svg" version="1.1" xmlns:xlink="http://www.w3.org/1999/xlink" xmlns:svgjs="http://svgjs.dev/svgjs" width="1000" height="381" viewBox="0 0 1000 381"><g transform="matrix(1,0,0,1,-0.6060606060606233,-0.29175580641020815)"><svg viewBox="0 0 396 151" data-background-color="#dedede" preserveAspectRatio="xMidYMid meet" height="381" width="1000" xmlns="http://www.w3.org/2000/svg" xmlns:xlink="http://www.w3.org/1999/xlink"><g id="tight-bounds" transform="matrix(1,0,0,1,0.2400000000000091,0.11563025398409366)"><svg viewBox="0 0 395.52 150.76873851971752" height="150.76873851971752" width="395.52"><g><svg viewBox="0 0 395.52 150.76873851971752" height="150.76873851971752" width="395.52"><g transform="matrix(1,0,0,1,0,77.59945314922948)"><svg viewBox="0 0 395.52 73.16928537048804" height="73.16928537048804" width="395.52"><g id="textblocktransform"><svg viewBox="0 0 395.52 73.16928537048804" height="73.16928537048804" width="395.52" id="textblock"><g><svg viewBox="0 0 395.52 73.16928537048804" height="73.16928537048804" width="395.52"><g transform="matrix(1,0,0,1,0,0)"><svg width="395.52" viewBox="-0.03302000090479851 -21.330142974853516 260.6940612792969 48.227142333984375" height="73.16928537048804" data-palette-color="#374151"><path d="M-0.033 12.611l0.147-0.725 3.058-0.136 6.282-31.03-2.762-1.325 0.146-0.725 25.944 5.252-1.768 8.733-1.46-0.296c-0.508-0.613-0.917-1.335-1.225-2.166v0c-0.679-1.954-0.812-3.95-0.4-5.988v0l-10.428-2.111-3.091 15.27 5.576 1.129c0.477-1.182 1.131-2.244 1.961-3.184v0c0.353-0.432 0.755-0.84 1.207-1.225v0l1.451 0.293-2.209 10.909-1.45-0.294c-0.268-0.524-0.481-1.053-0.638-1.588v0c-0.399-1.189-0.588-2.421-0.568-3.696v0l-5.576-1.129-3.042 15.025 11.398 2.308c0.411-2.032 1.31-3.816 2.696-5.352v0c0.602-0.654 1.259-1.16 1.971-1.519v0l1.46 0.296-1.766 8.723zM28.602 18.324l0.103-0.733 4.128-0.928 18.016-30.694 1.476 0.206 9.304 35.264 2.354 1.076-0.103 0.733-5.883-0.821c-1.697-0.237-3.03-0.813-3.999-1.73-0.975-0.924-1.637-2.039-1.986-3.346v0l-1.675-6.232-11.706-1.634-4.333 7.382 3.469 1.989-0.103 0.733zM46.424-3.815l-7.137 12.14 10.736 1.498zM69.13 23.692l0.068-0.737 3.026-0.463 2.941-31.774-5.665-0.524c-0.186 2.005-0.908 3.876-2.167 5.614v0c-0.527 0.708-1.11 1.283-1.747 1.726v0l-1.473-0.136 0.821-8.872 28.817 2.668-0.822 8.872-1.483-0.138c-0.578-0.556-1.061-1.23-1.45-2.022v0c-0.885-1.87-1.231-3.84-1.039-5.911v0l-5.666-0.525-2.942 31.775 2.889 1.01-0.068 0.737zM102.108 26.153l0.027-0.739 2.996-0.629 1.191-31.888-5.686-0.212c-0.075 2.012-0.694 3.92-1.855 5.725v0c-0.488 0.736-1.038 1.342-1.649 1.819v0l-1.479-0.055 0.333-8.904 28.92 1.081-0.333 8.904-1.489-0.056c-0.608-0.523-1.127-1.17-1.559-1.94v0c-0.986-1.818-1.44-3.766-1.362-5.845v0l-5.687-0.212-1.191 31.888 2.94 0.85-0.027 0.74zM128.005 26.897l-0.014-0.74 2.956-0.795-0.591-31.655-2.984-0.694-0.014-0.74 13.108-0.245c5.606-0.105 9.661 0.67 12.166 2.323 2.505 1.654 3.785 3.997 3.842 7.03v0c0.038 2.046-0.474 3.713-1.537 4.999-1.063 1.287-2.445 2.259-4.147 2.918v0c-1.807 0.727-3.73 1.127-5.768 1.198v0l0.004 0.25c1.221 0.044 2.294 0.204 3.22 0.48v0c2.326 0.683 3.917 1.957 4.772 3.822v0l4.634 9.815 2.494 0.693 0.014 0.74-6.929 0.13c-2.7 0.05-4.702-1.312-6.008-4.089v0l-5.157-11.045-3.219 0.06 0.259 13.857 3.483 0.675 0.014 0.74zM138.824 10.122l1.979-0.037c2.313-0.043 4.112-0.804 5.399-2.281 1.293-1.478 1.914-3.566 1.863-6.266v0c-0.051-2.706-0.749-4.77-2.096-6.192-1.34-1.429-3.167-2.121-5.48-2.078v0l-1.979 0.037zM159.926 26.266l-0.059-0.738 3.827-1.803 10.916-33.876 1.485-0.119 16.745 32.4 2.532 0.539 0.059 0.737-5.921 0.477c-1.708 0.138-3.134-0.135-4.279-0.819-1.152-0.69-2.041-1.635-2.667-2.835v0l-2.988-5.719-11.782 0.949-2.625 8.147 3.818 1.188 0.059 0.737zM172.511 0.783l-4.328 13.401 10.805-0.87zM213.049 21.859c-5.236 0.682-9.527-0.34-12.873-3.064-3.346-2.724-5.392-6.945-6.137-12.664v0c-0.49-3.762-0.266-7.075 0.673-9.94 0.937-2.872 2.485-5.154 4.645-6.847 2.16-1.693 4.776-2.74 7.85-3.14v0c1.864-0.243 3.815 0.051 5.853 0.882v0c0.772 0.303 1.558 0.735 2.357 1.297v0c0.444-0.925 0.929-1.671 1.454-2.237v0c0.539-0.507 0.836-0.781 0.891-0.821v0l1.23-0.161 1.213 9.322-1.963 0.255c-0.627-1.512-1.45-2.85-2.469-4.014v0c-0.942-1.141-2.048-2.046-3.319-2.715-1.269-0.662-2.654-0.895-4.155-0.699v0c-2.261 0.294-3.965 1.844-5.112 4.649-1.147 2.812-1.337 7.162-0.57 13.052v0c0.779 5.983 2.145 10.151 4.099 12.506 1.954 2.361 4.336 3.358 7.146 2.992v0c1.54-0.201 2.948-0.827 4.222-1.88 1.276-1.047 2.256-2.344 2.942-3.893 0.678-1.554 0.913-3.131 0.706-4.73v0l1.219-0.159c0.243 1.864-0.03 3.668-0.818 5.411-0.781 1.749-1.968 3.218-3.561 4.406-1.593 1.189-3.434 1.919-5.523 2.192zM229.064 18.753l-0.138-0.727 2.78-1.28-5.897-31.106-3.058-0.183-0.138-0.727 13.853-2.627 0.138 0.727-2.778 1.29 2.893 15.258 9.152-16.789-3.922-0.772-0.138-0.727 9.235-1.751 0.138 0.727-3.613 2.201-6.518 12.055 16.896 17.448 2.574 0.265 0.138 0.728-6.809 1.29c-1.454 0.276-2.761 0.147-3.92-0.386-1.161-0.54-2.303-1.372-3.425-2.496v0l-9.41-9.798 2.626 13.853 3.056 0.174 0.138 0.727z" opacity="1" transform="matrix(1,0,0,1,0,0)" fill="#374151" class="undefined-text-0" data-fill-palette-color="primary" id="text-0"></path></svg></g></svg></g></svg></g></svg></g><g transform="matrix(1,0,0,1,165.62085097663476,0)"><svg viewBox="0 0 64.2782980467305 73.16928537048804" height="73.16928537048804" width="64.2782980467305"><g><svg xmlns="http://www.w3.org/2000/svg" xmlns:xlink="http://www.w3.org/1999/xlink" version="1.1" x="0" y="0" viewBox="6.954076766967773 0.9999418258666992 86.09184265136719 98.00008392333984" enable-background="new 0 0 100 100" xml:space="preserve" height="73.16928537048804" width="64.2782980467305" class="icon-icon-0" data-fill-palette-color="accent" id="icon-0"><g fill="#374151" data-fill-palette-color="accent"><path d="M55.371 11.629C50.564 2.297 39.189-0.737 29.715 1.926c2.474 9.451 10.408 17.161 20.668 17.189-3.341 3.268-3.468 6.352-0.383 9.251 2.844-6.817 9.319-14.264 15.624-18.068-1.302-1.671-2.604-3.341-3.906-5.012C59.367 7.205 57.275 9.303 55.371 11.629z" fill="#374151" data-fill-palette-color="accent"></path></g><path d="M67.843 22.874c-8.254 0-14.818 4.25-17.843 10.915-3.025-6.666-9.589-10.915-17.843-10.915-42.13 0-26.578 81.057 10.963 75.889 3.223-0.444 5.414-1.515 6.88-3.044 1.466 1.529 3.657 2.6 6.88 3.044C94.421 103.931 109.973 22.874 67.843 22.874zM29.233 37.432c-7.044 2.937-10.386 11.057-7.449 18.101 0.576 1.383-0.077 2.97-1.459 3.546-0.341 0.142-0.695 0.209-1.042 0.209-1.062 0-2.07-0.628-2.504-1.668-4.088-9.804 0.563-21.106 10.367-25.193 1.384-0.577 2.97 0.076 3.546 1.459S30.615 36.856 29.233 37.432z" fill="#374151" data-fill-palette-color="accent"></path></svg></g></svg></g><g></g></svg></g><defs></defs></svg><rect width="395.52" height="150.76873851971752" fill="none" stroke="none" visibility="hidden"></rect></g></svg></g></svg>